<svg xmlns="http://www.w3.org/2000/svg" viewBox="0 0 800 400" width="100%" height="100%">
  <defs>
    <linearGradient id="nepalGrad" x1="0%" y1="0%" x2="100%" y2="100%">
      <stop offset="0%" stop-color="#C05746" />
      <stop offset="100%" stop-color="#9E4536" />
    </linearGradient>
  </defs>
  <!-- Faint outline of China -->
  <path d="M 0 0 L 800 0 L 800 150 L 600 180 L 400 120 L 200 160 L 0 100 Z" fill="#F0EFEA" />
  <text x="400" y="80" font-family="sans-serif" font-size="24" fill="#D1D1D1" text-anchor="middle" letter-spacing="4">CHINA</text>
  
  <!-- Faint outline of India -->
  <path d="M 0 400 L 800 400 L 800 250 L 600 220 L 400 280 L 200 240 L 0 300 Z" fill="#F0EFEA" />
  <text x="400" y="350" font-family="sans-serif" font-size="24" fill="#D1D1D1" text-anchor="middle" letter-spacing="4">INDIA</text>
  
  <!-- Stylized Nepal Map -->
  <path d="M 150 200 C 250 150, 350 180, 450 150 C 550 120, 650 180, 700 200 C 650 250, 550 220, 450 250 C 350 280, 250 220, 150 200 Z" fill="url(#nepalGrad)" filter="drop-shadow(0px 10px 15px rgba(192, 87, 70, 0.3))" />
</svg>
